<svg xmlns="http://www.w3.org/2000/svg" xmlns:xlink="http://www.w3.org/1999/xlink" preserveAspectRatio="xMidYMid" width="14.875" height="15.969" viewBox="0 0 14.875 15.969">
  <defs>
    <style>
      .cls-1 {
        fill-rule: evenodd;
      }
    </style>
  </defs>
  <path d="M11.721,11.776 L10.944,11.776 C10.447,10.826 9.300,10.168 8.176,10.125 C8.098,10.125 8.020,10.125 7.942,10.125 C6.818,10.168 5.671,10.826 5.174,11.776 L4.397,11.776 C4.771,10.855 5.668,10.115 6.568,9.720 C5.633,9.191 4.996,8.187 4.996,7.024 C4.996,5.312 6.364,3.923 8.053,3.923 C9.740,3.923 11.108,5.312 11.108,7.024 C11.108,8.185 10.473,9.187 9.543,9.717 C10.447,10.111 11.346,10.852 11.721,11.776 ZM10.401,7.024 C10.401,5.708 9.349,4.641 8.053,4.641 C6.755,4.641 5.703,5.708 5.703,7.024 C5.703,8.341 6.755,9.408 8.053,9.408 C9.349,9.408 10.401,8.341 10.401,7.024 ZM13.544,15.983 L2.186,15.983 C1.459,15.983 0.867,15.391 0.867,14.659 L0.867,12.704 C0.867,12.458 1.063,12.261 1.304,12.261 C1.546,12.261 1.742,12.458 1.742,12.704 L1.742,14.659 C1.742,14.899 1.939,15.097 2.186,15.097 L13.544,15.097 C13.791,15.097 13.988,14.898 13.988,14.652 L13.988,1.340 C13.988,1.099 13.787,0.897 13.544,0.897 L2.186,0.897 C1.938,0.897 1.742,1.093 1.742,1.335 L1.742,3.147 C1.742,3.392 1.546,3.591 1.304,3.591 C1.063,3.591 0.867,3.392 0.867,3.147 L0.867,1.335 C0.867,0.601 1.457,0.009 2.186,0.009 L13.544,0.009 C14.270,0.009 14.862,0.609 14.862,1.340 L14.862,14.652 C14.862,15.389 14.272,15.983 13.544,15.983 ZM2.774,4.491 C2.774,4.693 2.613,4.856 2.414,4.856 L0.355,4.856 C0.157,4.856 -0.005,4.693 -0.005,4.491 C-0.005,4.289 0.156,4.126 0.355,4.126 L2.414,4.126 C2.613,4.126 2.774,4.289 2.774,4.491 ZM0.355,7.515 L2.414,7.515 C2.613,7.515 2.774,7.678 2.774,7.880 C2.774,8.081 2.613,8.244 2.414,8.244 L0.355,8.244 C0.157,8.244 -0.005,8.081 -0.005,7.880 C-0.005,7.678 0.156,7.515 0.355,7.515 ZM0.355,10.891 L2.414,10.891 C2.613,10.891 2.774,11.055 2.774,11.256 C2.774,11.457 2.613,11.620 2.414,11.620 L0.355,11.620 C0.157,11.620 -0.005,11.457 -0.005,11.256 C-0.005,11.055 0.156,10.891 0.355,10.891 Z" class="cls-1"/>
</svg>
