<svg xmlns="http://www.w3.org/2000/svg" xmlns:xlink="http://www.w3.org/1999/xlink" preserveAspectRatio="xMidYMid" width="14" height="13" viewBox="0 0 14 13">
  <defs>
    <style>
      .cls-1 {
        fill-rule: evenodd;
      }
    </style>
  </defs>
  <path d="M3.500,6.070 L3.500,5.202 L7.301,5.202 C6.947,5.449 6.625,5.739 6.350,6.070 L3.500,6.070 ZM5.435,10.409 C5.522,10.711 5.638,11.002 5.779,11.277 L0.540,11.277 C0.201,11.277 0.000,11.317 0.000,10.982 L0.000,4.872 L0.000,4.334 L0.000,3.467 L0.000,2.651 L0.000,0.950 C0.000,0.596 0.217,-0.005 0.575,-0.005 L5.405,-0.005 C5.762,-0.005 6.125,0.596 6.125,0.950 L6.125,1.731 L12.439,1.731 C12.777,1.731 13.125,2.316 13.125,2.651 L13.125,5.425 C12.857,5.205 12.562,5.018 12.250,4.859 L12.250,4.334 L10.062,4.334 L0.875,4.334 L0.875,4.872 L0.875,10.409 L5.435,10.409 ZM0.875,3.467 L12.250,3.467 L12.250,2.599 L6.052,2.599 L5.250,2.599 L5.250,2.043 L5.250,0.863 L0.875,0.863 L0.875,2.651 L0.875,3.467 ZM13.082,9.541 C13.010,10.409 12.813,10.518 12.515,10.915 L13.157,11.545 L12.536,12.161 L11.895,11.526 C11.495,11.826 11.375,12.025 10.500,12.100 L10.500,13.012 L9.625,13.012 L9.625,12.100 C8.750,12.025 8.630,11.826 8.229,11.526 L7.589,12.162 L6.968,11.548 L7.609,10.914 C7.311,10.518 7.115,10.409 7.043,9.541 L6.125,9.541 L6.125,8.673 L7.045,8.673 C7.123,7.805 7.324,7.691 7.623,7.297 L6.968,6.638 L7.589,6.021 L8.247,6.673 C8.644,6.381 8.750,6.187 9.625,6.114 L9.625,5.202 L10.500,5.202 L10.500,6.114 C11.375,6.188 11.480,6.383 11.878,6.676 L12.536,6.025 L13.157,6.643 L12.502,7.297 C12.801,7.691 13.002,7.805 13.080,8.673 L14.000,8.673 L14.000,9.541 L13.082,9.541 ZM12.207,9.527 C12.234,9.391 12.250,9.251 12.250,9.107 C12.250,8.952 12.232,8.801 12.201,8.656 C12.143,8.384 12.033,8.129 11.881,7.904 C11.717,7.660 11.503,7.454 11.255,7.293 C11.029,7.146 10.775,7.037 10.502,6.982 C10.359,6.953 10.213,6.938 10.062,6.938 C9.912,6.938 9.766,6.953 9.623,6.982 C9.350,7.037 9.097,7.146 8.870,7.293 C8.622,7.453 8.408,7.660 8.244,7.904 C8.093,8.129 7.982,8.383 7.924,8.656 C7.893,8.801 7.875,8.952 7.875,9.107 C7.875,9.251 7.891,9.391 7.918,9.527 C7.973,9.804 8.082,10.062 8.232,10.290 C8.394,10.536 8.603,10.748 8.849,10.910 C9.080,11.064 9.342,11.175 9.623,11.232 C9.766,11.261 9.912,11.277 10.062,11.277 C10.213,11.277 10.359,11.261 10.502,11.232 C10.783,11.175 11.045,11.064 11.275,10.910 C11.521,10.748 11.729,10.536 11.893,10.290 C12.043,10.060 12.152,9.804 12.207,9.527 Z" class="cls-1"/>
</svg>
