<!-- Generated by IcoMoon.io -->
<svg version="1.1" xmlns="http://www.w3.org/2000/svg"  width="32" height="32" viewBox="0 0 32 32">
  <title>all</title>
  <path
        d="M4.571 15.314h10.743v6.4c0 0.457 0.229 0.686 0.686 0.686v0c0.457 0 0.686-0.229 0.686-0.686v-6.4h10.743v7.086c0 0.457 0.229 0.686 0.686 0.686v0c0.457 0 0.686-0.229 0.686-0.686v-7.314c0-0.686-0.457-1.143-1.143-1.143h-10.971v-2.743c0-0.457-0.229-0.686-0.686-0.686v0c-0.457 0-0.686 0.229-0.686 0.686v2.971h-10.971c-0.686 0-1.143 0.457-1.143 1.143v7.314c0 0.457 0.229 0.686 0.686 0.686v0c0.457-0.229 0.686-0.457 0.686-0.914v-7.086zM7.314 24.229h-6.629c-0.457 0-0.686 0.229-0.686 0.686v6.4c0 0.457 0.229 0.686 0.686 0.686h6.629c0.457 0 0.686-0.229 0.686-0.686v-6.4c0-0.457-0.229-0.686-0.686-0.686v0zM19.429 24.229h-6.857c-0.457 0-0.686 0.229-0.686 0.686v6.4c0 0.457 0.229 0.686 0.686 0.686h6.629c0.457 0 0.686-0.229 0.686-0.686v-6.4c0.229-0.457-0.229-0.686-0.457-0.686v0zM31.314 24.229h-6.629c-0.457 0-0.686 0.229-0.686 0.686v6.4c0 0.457 0.229 0.686 0.686 0.686h6.629c0.457 0 0.686-0.229 0.686-0.686v-6.4c0-0.457-0.229-0.686-0.686-0.686v0zM10.743 9.371h10.743c0.457 0 0.686-0.229 0.686-0.686v-8c-0.229-0.457-0.457-0.686-0.914-0.686h-10.514c-0.457 0-0.686 0.229-0.686 0.686v8c0 0.457 0.229 0.686 0.686 0.686v0z"></path>
</svg>
