<?xml version="1.0" encoding="utf-8"?>
<!-- Generator: Adobe Illustrator 16.0.0, SVG Export Plug-In . SVG Version: 6.00 Build 0)  -->
<!DOCTYPE svg PUBLIC "-//W3C//DTD SVG 1.1//EN" "http://www.w3.org/Graphics/SVG/1.1/DTD/svg11.dtd">
<svg version="1.1" id="图层_1" xmlns="http://www.w3.org/2000/svg" xmlns:xlink="http://www.w3.org/1999/xlink" x="0px" y="0px"
	 width="14px" height="14px" viewBox="0 0 14 14" enable-background="new 0 0 14 14" xml:space="preserve">
<g>
	<g>
		<path fill="#666666" d="M1.602,0H1.398C1.177,0,0.996,0.2,0.996,0.448v8.127c0,0.246,0.181,0.447,0.402,0.447h0.204
			c0.223,0,0.402-0.201,0.402-0.447V0.448C2.003,0.2,1.824,0,1.602,0z M6.39,8.003h1.204c0.222,0,0.401-0.206,0.401-0.462V0.462
			C7.995,0.208,7.815,0,7.594,0H6.39C6.167,0,5.988,0.208,5.988,0.462v7.079C5.988,7.797,6.167,8.003,6.39,8.003z M12.591,0h-0.189
			c-0.217,0-0.396,0.2-0.396,0.447v8.127c0,0.246,0.18,0.447,0.396,0.447h0.189c0.22,0,0.396-0.201,0.396-0.447V0.448
			C12.987,0.2,12.811,0,12.591,0z M9.03,9.378H4.975c-0.444,0-0.444,0.281-0.313,0.43l2.119,2.668c0.114,0.147,0.32,0.138,0.442,0
			l2.12-2.668C9.467,9.659,9.396,9.378,9.03,9.378z"/>
	</g>
</g>
</svg>
