<svg xmlns="http://www.w3.org/2000/svg" xmlns:xlink="http://www.w3.org/1999/xlink" preserveAspectRatio="xMidYMid" width="14.03" height="13.031" viewBox="0 0 14.03 13.031">
  <defs>
    <style>
      .cls-1 {
        fill-rule: evenodd;
      }
    </style>
  </defs>
  <path d="M12.536,8.194 C11.731,8.194 11.052,7.548 11.052,6.726 C11.052,6.510 11.095,6.295 11.180,6.122 L9.061,4.481 C8.806,4.697 8.468,4.827 8.128,4.827 C7.916,4.827 7.703,4.783 7.535,4.697 L4.864,8.367 C5.076,8.626 5.203,8.972 5.203,9.317 C5.203,10.137 4.525,10.785 3.720,10.785 C2.914,10.785 2.236,10.094 2.236,9.274 C2.236,8.454 2.914,7.806 3.720,7.806 C3.931,7.806 4.143,7.849 4.313,7.936 L7.026,4.308 C6.814,4.049 6.687,3.704 6.687,3.358 C6.687,2.538 7.322,1.890 8.128,1.890 C8.934,1.890 9.611,2.538 9.611,3.358 C9.611,3.574 9.569,3.791 9.484,3.963 L11.604,5.604 C11.858,5.388 12.197,5.259 12.536,5.259 C13.342,5.259 14.020,5.906 14.020,6.726 C14.020,7.548 13.342,8.194 12.536,8.194 ZM3.720,8.497 C3.295,8.497 2.914,8.842 2.914,9.317 C2.914,9.792 3.295,10.137 3.720,10.137 C4.186,10.137 4.525,9.749 4.525,9.317 C4.525,8.842 4.143,8.497 3.720,8.497 ZM8.128,2.538 C7.703,2.538 7.322,2.927 7.322,3.358 C7.322,3.833 7.703,4.179 8.128,4.179 C8.594,4.179 8.934,3.791 8.934,3.358 C8.934,2.884 8.552,2.538 8.128,2.538 ZM12.536,5.949 C12.070,5.949 11.731,6.295 11.731,6.770 C11.731,7.244 12.112,7.590 12.536,7.590 C13.002,7.590 13.342,7.202 13.342,6.770 C13.342,6.295 12.960,5.949 12.536,5.949 ZM2.400,12.118 L13.601,12.118 C13.799,12.118 14.000,12.331 14.000,12.595 C14.000,12.862 13.799,13.021 13.601,13.021 L2.400,13.021 C2.400,13.021 2.400,13.021 2.350,13.021 C2.200,13.021 1.850,13.021 1.600,12.755 C1.350,12.490 1.200,12.171 1.200,11.694 L1.200,10.057 L0.400,10.057 C0.200,10.057 -0.000,9.843 -0.000,9.632 C-0.000,9.366 0.200,9.206 0.400,9.206 L1.200,9.206 L1.200,6.748 L0.400,6.748 C0.200,6.748 -0.000,6.535 -0.000,6.323 C-0.000,6.057 0.200,5.898 0.400,5.898 L1.200,5.898 L1.200,3.438 L0.400,3.438 C0.200,3.438 -0.000,3.225 -0.000,3.013 C-0.000,2.801 0.200,2.588 0.400,2.642 L1.200,2.642 L1.200,0.836 L0.400,0.836 C0.200,0.836 -0.000,0.624 -0.000,0.412 C-0.000,0.146 0.200,-0.013 0.400,-0.013 L1.600,-0.013 C1.800,-0.013 2.000,0.146 2.000,0.412 L2.000,11.588 C2.000,11.694 2.000,11.906 2.100,12.011 C2.200,12.118 2.350,12.118 2.350,12.118 L2.400,12.118 Z" class="cls-1"/>
</svg>
