<?xml version="1.0" encoding="utf-8"?>
<!-- Generator: Adobe Illustrator 16.0.0, SVG Export Plug-In . SVG Version: 6.00 Build 0)  -->
<!DOCTYPE svg PUBLIC "-//W3C//DTD SVG 1.1//EN" "http://www.w3.org/Graphics/SVG/1.1/DTD/svg11.dtd">
<svg version="1.1" id="desion" xmlns="http://www.w3.org/2000/svg" xmlns:xlink="http://www.w3.org/1999/xlink" x="0px" y="0px"
	 width="18px" height="18px" viewBox="0 0 18 18" enable-background="new 0 0 18 18" xml:space="preserve">
<g>
	<g>
		<path  d="M17.961,7.688l-0.49-1.833c-0.137-0.558-0.588-0.979-1.147-1.069l-1.374-0.22l-0.583-0.764l0.103-1.375
			c0.045-0.575-0.256-1.121-0.761-1.385l-1.714-0.888c-0.553-0.285-1.225-0.168-1.655,0.287l-0.94,0.955h-0.94l-0.94-0.955
			C7.088-0.001,6.427-0.113,5.88,0.164L4.225,1.052C3.726,1.317,3.43,1.857,3.472,2.427l0.104,1.384l-0.688,0.84L1.665,4.775
			C1.051,4.837,0.548,5.298,0.423,5.912l-0.395,1.91C-0.09,8.404,0.161,9.002,0.658,9.32l1.101,0.715l0.245,0.955l-0.743,1.146
			c-0.344,0.535-0.298,1.234,0.113,1.719l1.261,1.498c0.377,0.447,0.985,0.613,1.533,0.422l1.251-0.439l0.856,0.42l0.47,1.297
			c0.199,0.572,0.73,0.953,1.327,0.955h1.882c0.603,0.008,1.145-0.377,1.345-0.955l0.414-1.375l0.941-0.418l1.308,0.418
			c0.591,0.223,1.255,0.02,1.627-0.496l1.082-1.555c0.318-0.484,0.318-1.113,0-1.596l-0.669-1.078l0.236-0.955l1.12-0.726
			C17.879,8.936,18.124,8.293,17.961,7.688z M14.396,9.064l-0.456,1.924l0.888,1.443l-0.973,1.4l-1.601-0.541l-1.846,0.799
			l-0.542,1.719h-1.71L7.564,14.15L5.87,13.291l-1.625,0.576l-1.169-1.34l0.974-1.512l-0.465-1.9L2.179,8.213l0.355-1.718
			L4.16,6.332l1.271-1.564L5.295,2.98l1.49-0.799L7.979,3.47h1.947l1.221-1.289l1.54,0.799l-0.135,1.718l1.134,1.487L15.38,6.46
			l0.448,1.676L14.396,9.064z M9.004,5.31c-2.006,0-3.632,1.65-3.632,3.686c0,2.033,1.626,3.686,3.632,3.686
			c2.005,0,3.632-1.652,3.632-3.686C12.636,6.96,11.009,5.31,9.004,5.31z M9.004,11.727c-1.486,0-2.691-1.223-2.691-2.73
			c0-1.508,1.205-2.731,2.691-2.731s2.69,1.223,2.69,2.731C11.694,10.504,10.49,11.727,9.004,11.727z"/>
	</g>
</g>
</svg>
