<svg xmlns="http://www.w3.org/2000/svg" xmlns:xlink="http://www.w3.org/1999/xlink" preserveAspectRatio="xMidYMid" width="14" height="11" viewBox="0 0 14 11">
  <defs>
    <style>
      .cls-1 {
        fill-rule: evenodd;
      }
    </style>
  </defs>
  <path d="M0.000,11.000 L0.000,-0.000 L14.000,-0.000 L14.000,11.000 L0.000,11.000 ZM13.000,1.000 L1.000,1.000 L0.980,10.160 L13.000,10.000 L13.000,1.000 ZM4.000,3.000 L2.000,3.000 L2.000,2.000 L4.000,2.000 L4.000,3.000 ZM4.000,6.000 L2.000,6.000 L2.000,5.000 L4.000,5.000 L4.000,6.000 ZM4.000,9.000 L2.000,9.000 L2.000,8.000 L4.000,8.000 L4.000,9.000 ZM8.000,3.000 L5.000,3.000 L5.000,2.000 L8.000,2.000 L8.000,3.000 ZM8.000,6.000 L5.000,6.000 L5.000,5.000 L8.000,5.000 L8.000,6.000 ZM12.000,3.000 L9.000,3.000 L9.000,2.000 L12.000,2.000 L12.000,3.000 Z" class="cls-1"/>
</svg>
