<?xml version="1.0" encoding="utf-8"?>
<!-- Generator: Adobe Illustrator 16.0.0, SVG Export Plug-In . SVG Version: 6.00 Build 0)  -->
<!DOCTYPE svg PUBLIC "-//W3C//DTD SVG 1.1//EN" "http://www.w3.org/Graphics/SVG/1.1/DTD/svg11.dtd">
<svg version="1.1" id="图层_1" xmlns="http://www.w3.org/2000/svg" xmlns:xlink="http://www.w3.org/1999/xlink" x="0px" y="0px"
	 width="18px" height="18px" viewBox="0 0 18 18" enable-background="new 0 0 18 18" xml:space="preserve">
<path  d="M16.57,14.299H1.567c0-0.095,0.016-0.186,0.021-0.279c-0.01-0.035-0.021-0.068-0.021-0.107
	c0-0.062,0.018-0.117,0.042-0.169c0.16-1.255,0.852-2.329,1.834-2.991V7.34c0-2.526,1.569-4.668,3.756-5.464
	c0.026-1.043,0.852-1.881,1.87-1.881c1.015,0,1.845,0.835,1.87,1.881c2.187,0.796,3.756,2.938,3.756,5.464v3.412
	c0.982,0.662,1.674,1.736,1.834,2.991c0.025,0.052,0.041,0.107,0.041,0.169c0,0.039-0.011,0.072-0.021,0.107
	C16.557,14.113,16.57,14.204,16.57,14.299z M13.056,10.449V7.304c0-0.128-0.007-0.254-0.018-0.379
	c-0.004-0.037-0.01-0.074-0.013-0.111c-0.011-0.09-0.024-0.18-0.041-0.27c-0.006-0.037-0.012-0.074-0.021-0.111
	c-0.023-0.112-0.05-0.223-0.082-0.332c-0.003-0.007-0.004-0.016-0.006-0.023c-0.035-0.114-0.074-0.226-0.119-0.336
	c-0.015-0.036-0.03-0.07-0.045-0.105c-0.033-0.077-0.069-0.152-0.106-0.228c-0.019-0.036-0.036-0.071-0.056-0.106
	c-0.047-0.087-0.096-0.171-0.148-0.254c-0.012-0.017-0.021-0.035-0.032-0.051c-0.062-0.094-0.128-0.186-0.198-0.274
	c-0.026-0.033-0.054-0.065-0.081-0.098c-0.048-0.058-0.099-0.114-0.148-0.169C11.91,4.425,11.88,4.392,11.848,4.36
	c-0.06-0.059-0.121-0.116-0.184-0.172c-0.027-0.024-0.053-0.049-0.081-0.072c-0.08-0.067-0.163-0.131-0.248-0.192
	c-0.038-0.027-0.078-0.052-0.116-0.078c-0.058-0.039-0.117-0.076-0.178-0.112c-0.042-0.024-0.083-0.049-0.127-0.072
	c-0.293-0.157-0.604-0.276-0.925-0.354V2.878c0-0.523-0.412-0.948-0.921-0.948c-0.508,0-0.92,0.425-0.92,0.948v0.431
	C7.937,3.36,7.731,3.426,7.535,3.51C7.5,3.525,7.466,3.543,7.432,3.559c-0.07,0.033-0.141,0.067-0.209,0.104
	C7.18,3.686,7.138,3.71,7.096,3.735C7.035,3.771,6.977,3.808,6.918,3.847C6.879,3.873,6.84,3.897,6.803,3.924
	C6.717,3.985,6.634,4.049,6.554,4.116C6.526,4.139,6.5,4.164,6.474,4.188C6.41,4.244,6.349,4.301,6.289,4.36
	C6.258,4.392,6.227,4.425,6.196,4.458C6.146,4.513,6.095,4.569,6.047,4.627C6.02,4.66,5.992,4.692,5.966,4.725
	C5.896,4.813,5.83,4.904,5.768,4.999C5.757,5.016,5.747,5.033,5.736,5.05C5.684,5.133,5.634,5.217,5.587,5.304
	C5.567,5.339,5.55,5.375,5.531,5.41c-0.037,0.075-0.072,0.15-0.105,0.228c-0.015,0.035-0.03,0.069-0.045,0.105
	c-0.044,0.11-0.085,0.222-0.12,0.336C5.259,6.086,5.258,6.095,5.255,6.102c-0.032,0.109-0.059,0.22-0.082,0.332
	C5.165,6.47,5.158,6.507,5.151,6.544c-0.016,0.089-0.029,0.179-0.039,0.27C5.107,6.851,5.103,6.888,5.1,6.925
	C5.088,7.05,5.081,7.176,5.081,7.304v3.145c-0.739,0.381-1.274,1.083-1.458,1.914h10.891C14.33,11.532,13.796,10.83,13.056,10.449z
	 M12.159,8.652c0,0-0.433-1.144-1.361-2.339C9.911,5.171,8.982,4.442,8.982,4.442s1.372,0.248,2.269,1.403
	C12.17,7.028,12.159,8.652,12.159,8.652z M9.069,16.121c0.885,0,1.311-0.395,1.311-0.969l0,0h1.871
	C12.271,16.445,11.206,18,9.106,18c-2.45,0-3.386-1.557-3.404-2.848c-0.001-0.023-0.001,0.021,0,0h1.871
	C7.573,15.727,7.951,16.121,9.069,16.121z"/>
</svg>
