<!-- Generated by IcoMoon.io -->
<svg version="1.1" xmlns="http://www.w3.org/2000/svg" width="32" height="32" viewBox="0 0 32 32">
<title>operator</title>
<path  d="M21.515 16.601c-2.183 2.423-1.216 3.417-1.216 3.417 1.888 2.272 4.594 2.421 6.983 2.983h0.002c0.923 0.231 1.81 0.505 2.569 0.999 2.747 1.762 2.073 5.787 2.073 5.787h-30.907c0 0-0.679-4.025 2.073-5.79 0.777-0.503 1.675-0.786 2.617-1.008 2.375-0.553 5.058-0.718 6.937-2.969 0 0 0.965-0.994-1.221-3.417-2.197-2.437-2.382-6.29-1.826-9.273 0.546-2.983 3.655-4.974 6.873-4.974 3.221 0 6.327 1.991 6.869 4.974 0.553 2.983 0.37 6.837-1.826 9.271z"></path>
</svg>
