<?xml version="1.0" encoding="utf-8"?>
<!-- Generator: Adobe Illustrator 16.0.0, SVG Export Plug-In . SVG Version: 6.00 Build 0)  -->
<!DOCTYPE svg PUBLIC "-//W3C//DTD SVG 1.1//EN" "http://www.w3.org/Graphics/SVG/1.1/DTD/svg11.dtd">
<svg version="1.1" id="icon-personCenter" xmlns="http://www.w3.org/2000/svg" xmlns:xlink="http://www.w3.org/1999/xlink" x="0px" y="0px" class="icon"
	 width="20px" height="20px" viewBox="0 0 20 20" enable-background="new 0 0 20 20" xml:space="preserve">
<g>
	<g>
		<path fill="#666666" d="M18,0H2C0.896,0,0,0.896,0,2v16c0,1.104,0.896,2,2,2h16c1.104,0,2-0.896,2-2V2C20,0.896,19.104,0,18,0z
			 M9.947,3.16c2.098,0,3.798,1.667,3.798,3.725c0,1.381-0.77,2.585-1.909,3.228c-0.557,0.314-1.2,0.497-1.89,0.497
			c-0.729,0-1.409-0.206-1.988-0.555c-1.085-0.657-1.812-1.829-1.812-3.17C6.146,4.828,7.848,3.16,9.947,3.16z M16.245,16.84H3.366
			c-0.001-0.033-0.005-0.066-0.005-0.1c0-2.897,1.938-5.342,4.598-6.13c0.578,0.349,1.258,0.555,1.988,0.555
			c0.688,0,1.332-0.183,1.889-0.497c2.563,0.846,4.414,3.242,4.415,6.072C16.251,16.773,16.245,16.807,16.245,16.84z"/>
	</g>
</g>
</svg>
