<svg xmlns="http://www.w3.org/2000/svg" xmlns:xlink="http://www.w3.org/1999/xlink" preserveAspectRatio="xMidYMid" width="14" height="14" viewBox="0 0 14 14">
  <defs>
    <style>
      .cls-1 {
        fill-rule: evenodd;
      }
    </style>
  </defs>
  <path d="M-0.013,3.982 L13.887,3.982 L12.959,4.995 L12.959,-0.003 L13.887,1.010 L-0.013,1.010 L0.916,-0.003 L0.916,4.995 L-0.013,3.983 L-0.013,3.982 ZM-0.013,4.995 L-0.013,-0.003 L13.887,-0.003 L13.887,4.995 L-0.013,4.995 ZM13.565,7.008 L14.010,7.008 L14.010,5.995 L5.997,5.995 L5.997,7.008 L6.443,7.008 L13.565,7.008 ZM13.565,8.998 L14.010,8.998 L14.010,7.986 L5.997,7.986 L5.997,8.998 L6.443,8.998 L13.565,8.998 ZM13.565,11.991 L14.010,11.991 L14.010,11.008 L5.997,11.008 L5.997,11.991 L6.443,11.991 L13.565,11.991 ZM13.565,14.013 L14.010,14.013 L14.010,13.000 L5.997,13.000 L5.997,14.013 L6.443,14.013 L13.565,14.013 ZM-0.014,12.979 L4.996,12.979 L3.992,13.993 L3.992,5.995 L4.996,7.007 L-0.014,7.007 L0.991,5.995 L0.991,13.991 L-0.014,12.979 ZM-0.014,13.993 L-0.014,5.995 L4.996,5.995 L4.996,13.993 L-0.014,13.993 Z" class="cls-1"/>
</svg>
