<?xml version="1.0" encoding="utf-8"?>
<!-- Generator: Adobe Illustrator 16.0.0, SVG Export Plug-In . SVG Version: 6.00 Build 0)  -->
<!DOCTYPE svg PUBLIC "-//W3C//DTD SVG 1.1//EN" "http://www.w3.org/Graphics/SVG/1.1/DTD/svg11.dtd">
<svg version="1.1" id="switchSp" xmlns="http://www.w3.org/2000/svg" xmlns:xlink="http://www.w3.org/1999/xlink" x="0px" y="0px" class="icon"
	 width="20px" height="20px" viewBox="0 0 20 20" enable-background="new 0 0 20 20" xml:space="preserve">
<g>
	<g>
		<path fill="#666666" d="M18,0H2C0.896,0,0,0.896,0,2v16c0,1.104,0.896,2,2,2h16c1.104,0,2-0.896,2-2V2C20,0.896,19.104,0,18,0z
			 M3.327,7.05h0.549V6.879c0-2.052,1.564-3.719,3.509-3.719h0.127c0.127,0,0.254,0.128,0.296,0.256v0.727
			c0,0.128-0.127,0.256-0.253,0.256H7.427c-1.353,0-2.409,1.111-2.409,2.479v0.128H5.44c0.211,0,0.296,0.256,0.169,0.427
			l-1.057,1.24c-0.085,0.128-0.296,0.128-0.381,0L3.157,7.478C2.988,7.307,3.115,7.05,3.327,7.05z M9.969,16.308
			c0,0.164-0.043,0.286-0.171,0.368c-0.085,0.082-0.255,0.164-0.384,0.164H4.43c-0.299,0-0.555-0.246-0.555-0.532v-4.256
			c0-0.286,0.256-0.532,0.555-0.532h4.984c0.299,0,0.555,0.246,0.555,0.532V16.308z M9.955,7.948V3.692
			c0-0.287,0.256-0.532,0.555-0.532h4.984c0.299,0,0.555,0.246,0.555,0.532v4.256c0,0.164-0.043,0.287-0.171,0.368
			c-0.085,0.082-0.255,0.164-0.384,0.164H10.51C10.211,8.479,9.955,8.234,9.955,7.948z M16.389,12.949H15.84v0.172
			c0,2.052-1.564,3.719-3.51,3.719h-0.083c-0.297,0-0.382-0.129-0.382-0.257v-0.727c0-0.128,0.128-0.256,0.254-0.256h0.128
			c1.31,0,2.366-1.112,2.408-2.479v-0.172h-0.423c-0.211,0-0.338-0.256-0.169-0.428l1.058-1.239c0.085-0.128,0.296-0.128,0.38,0
			l1.057,1.239C16.686,12.693,16.601,12.949,16.389,12.949z"/>
	</g>
</g>
</svg>
